<?xml version="1.0" encoding="UTF-8"?>
<svg id="Brown_Stacked_Reverse" xmlns="http://www.w3.org/2000/svg" version="1.1" viewBox="0 0 311.7 362.5">
  <!-- Generator: Adobe Illustrator 29.6.1, SVG Export Plug-In . SVG Version: 2.1.1 Build 9)  -->
  <defs>
    <style>
      .st0 {
        fill: #231f20;
      }

      .st1 {
        fill: #ed1c24;
      }

      .st2 {
        fill: #fff;
      }
    </style>
  </defs>
  <g>
    <path class="st2" d="M14.1,334.3v17.4c0,5.4,1,7.2,6.9,7.1,6.7,0,12.4-3.4,12.4-11.8s-6.4-12.7-14.6-12.7h-4.6ZM14.1,331.9h5c7.7,0,11.5-3.6,11.5-10.1s-2-10.1-11.4-10.1-3.7.2-4.4.5c-.5.2-.7.5-.7,2.1v17.7ZM21.9,309.3c5.8,0,9,1,11.7,2.8,2.7,1.9,4.1,4.8,4.1,8.8,0,7-6.6,10.5-10.5,11.4v.2c7.3,1,13.8,5.4,13.8,13.4s-2.8,9.7-7.4,12.3c-4.1,2.2-9.2,3-15.3,3H0v-1.8c6.7-.5,7.4-1,7.4-9.7v-28.8c0-8.7-.6-9.3-6.9-9.7v-1.8h21.4Z"/>
    <path class="st2" d="M68.9,336.1h4.6c3.3,0,5.8-.4,8-2.2,3.4-2.7,4.6-6.6,4.6-10.6,0-8.4-6.1-11.7-12.1-11.7s-3.8.2-4.5.4c-.5.2-.7.6-.7,2.2v21.9ZM68.9,349.7c0,8.7.6,9.3,7.2,9.7v1.8h-21.3v-1.8c6.7-.5,7.4-1,7.4-9.7v-28.8c0-8.7-.6-9.3-7-9.7v-1.8h20.3c5.1,0,9.7.7,12.6,2.7,3.2,2,5.3,5.6,5.3,10.2,0,6.6-4.1,11.4-10.6,14,1.4,2.4,4.7,7.9,7.1,11.4,2.9,4.2,4.6,6.4,6.7,8.8,1.7,2,3.1,3.3,6,4l-.2,1.5h-1.1c-9.2-.2-12-3-15-7.4-2.5-3.6-5.8-9.5-8.1-13.3-1.3-2.1-2.5-2.9-5-2.9h-4.3v11.3Z"/>
    <path class="st2" d="M136.5,310.8c-9.4,0-17.4,7.8-17.4,22.8s8.1,26.3,19.7,26.3,17.4-7.4,17.4-22.3-8.3-26.8-19.7-26.8M164,334.6c0,16.6-11.6,27.9-26.9,27.9s-25.8-11.5-25.8-26.6,9.4-27.7,27.2-27.7,25.4,10.7,25.4,26.5"/>
    <path class="st2" d="M190.2,311.2l-2.5.3c-3.6.5-4.1,1.2-3,4.7l10.8,34h.2l12.8-40.1h1.9l14.5,40h.2c3.3-10.1,7.9-26.9,9.3-32.7,1.1-4.6.7-5.6-2.9-6l-2.3-.3v-1.8h16.9v1.8c-5.3.6-5.8,1-8.5,8.2-.7,2-6.6,20.4-13.3,42.4h-2.2l-14.4-39.1-.2.2-13,38.9h-2.2l-13.8-42.9c-2.2-6.6-3.4-7.2-7.9-7.7v-1.8h19.6v1.8Z"/>
    <path class="st2" d="M304.2,361.8h-2.1l-34.7-42.1h-.2v20.4c0,8.4.3,12.7.6,15.2.4,2.8,2.6,3.9,7.8,4.2v1.8h-19.2v-1.8c4.4-.2,6.5-1.4,6.9-4.2.3-2.5.6-6.8.6-15.2v-17.3c0-5.8,0-7-1.5-8.9-1.5-1.9-3.7-2.5-7-2.7v-1.8h11.7l33.7,40.3h.2v-19.1c0-8.4-.3-12.7-.6-15.2-.4-2.8-2.6-3.9-7.8-4.1v-1.8h19.2v1.8c-4.4.2-6.5,1.4-6.9,4.1-.3,2.5-.6,6.8-.6,15.2v31.3Z"/>
  </g>
  <g>
    <g>
      <g>
        <g>
          <path class="st2" d="M131.5,38.6c.3.5.7,1.2,1.3,2.2,1.5,2.5,3.9,12.2,7,15.3,1.6-1.1,4.5-2.5,6.1-3.1-.4-.6-2.1-3.6-4-6.1-3.7-4.9-6.4-7.5-6.7-8-1,0-2.7,0-3.8-.3Z"/>
          <path class="st2" d="M159.2,51.4c.7-5-.9-13.4-1.9-15.5-1.3-.3-2.5-.8-3.6-1.3-.1.6-1.1,4-1.4,9.1-.2,2.7,0,6.8.4,7.7,1.6-.2,4.3-.2,6.5,0Z"/>
          <path class="st2" d="M183.1,81c0-15.1-11.8-27-27-27s-27,12.1-27,27,.2,2.2.4,3.6c7.8-1.8,18-1.5,22.6,2.1,7.4-4.2,18.1-4.5,25.9,0,1.6-.8,3.2-1.3,4.8-1.8.2-1.5.3-3,.3-4ZM150.2,71.8c0,1.7-1.6,3.1-3.3,3-1.7,0-3.1-1.6-3-3.3v-.3c-.2-.4-1.6-.9-3.7.4-1.1.6-2.2.2-.4-1.4,1.9-1.7,3.8-2.7,5.4-2.9h0c2.7-.2,6.3.4,8,1,.7.3,0,3.7-.2,3.6-.6-.1-1.8-.6-2.8-.4v.2ZM159.2,81.2c-.6,1.6-6.2,2.1-7.3,0-.4-.8-1-3-.2-2.5,1.3.7,5.8.2,6.7,0,.8-.2.3-1.3.7-1.1.6.2.6,2.1,0,3.6ZM172.6,72.4c-1.4-1.2-3.3-1.7-4-1.2v.2c.2,1.7-1.1,3.2-2.8,3.4-1.7.2-3.3-1.1-3.4-2.9h0c-1.1-.5-2.9.1-3.2,0-.1,0-.9-3.3,0-3.7,2.7-1.1,11.4-1.6,14,3.3.3.6.1,1.4-.6.8Z"/>
          <path class="st2" d="M174.2,38.3c-3.2,2.7-8,9.2-8.6,14.4,1.5.6,5.4,2.5,6,2.9,3.9-3.8,3.1-8.1,4.6-11.4.7-1.4,1.3-2.5,1.7-3.2-1.3-.7-2.6-1.7-3.6-2.8Z"/>
          <path class="st2" d="M193.1,48.6c-.7.4-2.3,1.4-2.9,1.8-3.7,2.8-11.9,6.6-13.7,8.7,1.5,1.3,3.7,3.7,4.7,5.7.9,0,3.5-2.1,8.7-8.2,1.7-2,3.4-3,6.7-4.8-1.3-.9-2.5-2-3.4-3.2Z"/>
          <path class="st2" d="M127.7,71.2c-1.8-1.7-5.2-3.2-9.8-2.9-9.3.7-15.4.1-18.9-.4-6-.9-9.7,0-12.8,0-9.1,0,.3.8,1.3,1.2,4.3,1.7,13,3.8,19.8,3.3,3.3-.2,8.9,1.8,9.9,2.1,2.5.9,6.9,2.3,9.3,2.3.1-1.1.7-4.4,1.2-5.7Z"/>
          <path class="st2" d="M135.2,59.8c-4.7-3.8-9-4.6-15.8-7.8-1.6-.7-4.2-2.5-4.3-2.6-.2-.1-.5-.3-.9-.6-.4,1.3-1.2,3-2,4,1.1,1.4,8.7,10.1,18.5,12.8,1.1-1.9,2.8-4,4.5-5.9Z"/>
          <path class="st2" d="M233.4,66.6c-.5,0-2.2-.3-3.3-.3-1.5,0-11.2,0-13.8.5-5.4.8-15.9.4-21.6.2-4.3-.2-9.2,1.5-10.7,2.3,0,0,1.7,4.1,1.8,6.9,1.8.3,3.6-2,8.8-1.9,5.4,0,18.8-.6,25.6-3.3,5.1-2,9.3-2.9,12.7-3.6,1.1-.2,3-.5.7-.8Z"/>
        </g>
        <path class="st2" d="M112.4,39.5c.4-.4,1-.3,1.6-.1,4.6,1.5,11.2.5,14.2-4.4.4-.7,1.3-.9,2-.6,3.2,1.3,9.7,1.9,17.6-6.1.6-.6,1.6-.5,2.2,0,6.9,5.6,14.2,5.9,21.5,1,.5-.3,1-.7,1.5-.5.5.2.9.6,1,1.2,2.3,10.8,13.6,9.9,17.1,9.3.4,0,.9,0,1.2.3.4.3.6.7.7,1.1.4,2.5,3.2,7.4,8,10,4.2,2.1,8.7,2,13.5-.5.5-.2,1.1-.2,1.5,0,6.1,3.3,11.7,3.5,15.1.5,2.5-2.1,3.5-5.4,2.5-8.4-1.1-3.3-4.4-5.3-9-5.6-.8,0-1.4-.6-1.5-1.4-.4-2.6-1.9-4.8-4.2-6.2-3.6-2.2-8.9-2.5-14.2-.7-.5.2-1,0-1.4-.2s-.7-.7-.8-1.2c-.3-2-1.2-4.8-3.7-6.3-2.7-1.6-6.7-1.6-11.7.1-.8.3-1.6,0-2-.8-3.2-6.1-7.7-10.1-13-11.5-4.8-1.3-10-.3-14.5,2.5-.6.4-1.3.3-1.9,0-4.5-3.4-9.8-4.4-14.7-2.9-4.7,1.4-8.4,5.2-10.2,10.4-.1.4-.5.8-.9,1-.4.2-.9.2-1.3,0-7.3-2.9-13.2-2.8-17.2.2-3.4,2.6-4.5,6.8-4.3,8,.1.8-.4,1.6-1.2,1.8l-1.7.4c-4,.9-8.2,1.9-9.5,8.3-.1.7-.7,1.3-1.5,1.3-7,.7-11.6,3.3-12.5,7.1-.7,2.7.6,5.8,3,7.4,2.5,1.7,5.5,1.5,8.2-.5.5-.3,1-.4,1.6-.2,4.1,1.6,10.8,1.3,14.8-2,2.9-2.4,4.1-5.8,3.4-10.3,0-.6.1-1.1.6-1.5ZM223.3,40c4.2-1,9.1,2.1,7.7,7.7-.2,1-2.6,1-2.5,0,.4-4.7-2-5.1-5-5-1.2,0-1.1-2.5-.2-2.7ZM205.5,31.7c4-2.3,12.3-1.9,14.9,5.5.4,1.3-1.2,3.4-2.3,1.5-3.1-5.7-8.1-5.7-12.3-4.1-.9.4-1.8-2-.3-2.9ZM188.2,23.2c3.8-1.3,10.1-1.9,11.8,4.4.5,1.8-1.7,2.6-2.1,1.4-1.7-4.5-5-4.4-8.9-3.1-1.8.6-1.4-2.4-.8-2.6ZM157.5,16.1c2.7-4.4,16.8-8.5,24.1,3.9.8,1.4-.3,2.1-1.1,2.7-.6.4-.9-.5-1.3-1.1-6.2-9.7-17.3-7.2-20.3-2.7-.6.9-2.2-1.6-1.4-2.9ZM134.7,16.8c2.5-3.9,11-10,18.6-3.3.8.7-.2,3.5-1.1,2.8-6.9-4.7-12.3-.9-15.2,2.5-1.4,1.6-2.8-1.1-2.2-2ZM94,44.3c-2.9,0-5.2,0-7.2,2.3-2.2,2.4-1.6,3.6-2,4.1-.6.6-2.1-.4-2.1-1.6.1-5.5,6.8-7.7,10.8-7.3,1.5.2,1.9,2.5.6,2.5ZM105.7,35.1c-4.2.5-5.5,2.5-6.2,4.9-.3.9-2.7.3-2.3-1.5,1.1-5.2,6.8-6.5,8.8-6,.7.1.5,2.6-.3,2.6ZM109.3,29.4c.9-4.6,5.4-11.3,15.6-8.7,1.3.3.5,3.5-.8,3-7.5-2.9-11.3,2.7-12.5,7.2-.2.6-2.7.4-2.3-1.5Z"/>
        <g>
          <path class="st2" d="M88.5,85.9c-5-.1-9.1,1.3-10.6,3.8-2.7,4.7.5,8.7,2.4,9.9,4.3,2.6,8.4.9,8.7-.7-1.2-1.3-3.2-4.3-4.4-4.4-1.7,0-1.5-2.2-.3-2.6,2.9-1,5.7,4.5,9.8,7.5,3.7,2.6,8.9.7,8.9-.4-2.3-2-5-13-14.6-13.2Z"/>
          <path class="st2" d="M187.4,98.8c3.4,3.5,8.1,2,8.3.8-.4-.7-2.6-3.9-3.8-4.6-1-.6-1.7-1.5-1.2-2.3.9-1.3,2.8-.4,4,1.1,1.2,1.5,4.5,5.8,5.7,6.4,3,1.7,9.7,1.1,9.1-.9-1.8-2.9-3.1-8.8-8.6-11.4-5.7-2.7-13-2-19.7.4,1.2,2.4,4.4,8.6,6.1,10.4Z"/>
          <path class="st2" d="M147.5,87.8c-5.7-2.7-13.7-1.8-20.5.6,1.9,2.5,5,8.3,6.6,10.3,3.1,3.8,8.4,1.9,8.6.7-.4-.7-3.2-4.4-4.3-5-1-.6-1.6-1.5-1-2.3.9-1.3,3.2,0,4.4,1.4,1.2,1.5,4.6,5.7,5.7,6.4,3.3,2.3,9.7,1.1,9.1-.9-2.2-2.9-3.1-8.8-8.6-11.4Z"/>
        </g>
      </g>
      <g>
        <g>
          <path class="st2" d="M104.9,131.4c-4,.1-8,1.7-10.3,1.3v27.1s1.5,1.1,5.5,0c5.2-1.5,7.6.1,7.6.1v-27.3s-.6-1.2-2.8-1.2Z"/>
          <path class="st2" d="M119.3,244.5c4.1,1.2,5.5,0,5.5,0v-27.1c-2.3.4-6.3-1.2-10.3-1.3-2.2,0-2.8,1.2-2.8,1.2v27.3s2.3-1.6,7.6-.1Z"/>
          <path class="st2" d="M207.4,131.4c-2.2,0-2.8,1.2-2.8,1.2v27.3s2.3-1.6,7.6-.1c4.1,1.2,5.5,0,5.5,0v-27.1c-2.3.4-6.3-1.2-10.3-1.3Z"/>
          <path class="st2" d="M114.5,131.4c-2.2,0-2.8,1.2-2.8,1.2v27.3s2.3-1.6,7.6-.1c4.1,1.2,5.5,0,5.5,0v-27.1c-2.3.4-6.3-1.2-10.3-1.3Z"/>
          <path class="st2" d="M107.6,244.6v-27.3s-.6-1.2-2.8-1.2c-4,.1-8,1.7-10.3,1.3v27.1s1.5,1.1,5.5,0c5.2-1.5,7.6.1,7.6.1Z"/>
          <path class="st2" d="M205.1,217.3v27.3s2.3-1.6,7.6-.1c4.1,1.2,5.5,0,5.5,0v-27.1c-2.3.4-6.3-1.2-10.3-1.3-2.2,0-2.8,1.2-2.8,1.2Z"/>
          <path class="st2" d="M197.7,131.4c-4,.1-8,1.7-10.3,1.3v27.1s1.5,1.1,5.5,0c5.2-1.5,7.6.1,7.6.1v-27.3s-.6-1.2-2.8-1.2Z"/>
          <path class="st2" d="M187.9,217.5v27.1s1.5,1.1,5.5,0c5.2-1.5,7.6.1,7.6.1v-27.3s-.6-1.2-2.8-1.2c-4,.1-8,1.7-10.3,1.3Z"/>
        </g>
        <g>
          <path class="st2" d="M235.2,119.3h-64.9v58.8h64.9v-58.8ZM225.5,166.2h-18.6v2.3h-7.7v-2.3h-18.6v-31.4h4v-5.7c4,1,10.6-1.2,13.5-1.2,3.3,0,4.9,1.4,4.9,1.4,0,0,1.7-1.4,4.9-1.4s9.5,2.2,13.5,1.2v5.7h4v31.4Z"/>
          <path class="st2" d="M142,119.3h-64.9v58.8h64.9v-58.8ZM132.1,166.2h-18.6v2.3h-7.7v-2.3h-18.6v-31.4h4v-5.7c4,1,10.6-1.2,13.5-1.2,3.3,0,4.9,1.4,4.9,1.4,0,0,1.7-1.4,4.9-1.4s9.5,2.2,13.5,1.2v5.7h4v31.4Z"/>
          <path class="st2" d="M170.3,283.4c16.4-4.7,32.6-11.1,43.5-21.1,3.9-3.5,7.1-7.3,9.8-11.3h-16.7v2.3h-7.7v-2.3h-18.6v-31.4h4v-5.7c4,1,10.6-1.2,13.5-1.2,3.3,0,4.9,1.4,4.9,1.4,0,0,1.7-1.4,4.9-1.4s9.5,2.2,13.5,1.2v5.7h4v28.4c6-10.3,8.8-23,9.8-40.8v-2.7h-65v78.8Z"/>
          <path class="st2" d="M87.3,247.6v-28.1h4v-5.7c4,1,10.6-1.2,13.5-1.2,3.3,0,4.9,1.4,4.9,1.4,0,0,1.7-1.4,4.9-1.4s9.5,2.2,13.5,1.2v5.7h4v31.4h-18.6v2.3h-7.7v-2.3h-16.6c2.6,4,5.8,7.7,9.5,11.2,10.3,9.7,26.6,16.3,43.3,21.2v-78.8h-64.9v2.5c.8,16.3,3.8,29.5,10.2,40.6Z"/>
        </g>
      </g>
    </g>
    <g>
      <g>
        <path class="st0" d="M242.4,64.9c-1-.7-11.3-2-12.9-2s-10.5,0-14,.6c-5.4.8-14.5.8-21.5,0-2.5-.3-5.3.3-7.6,1.1.4-.4.9-.8,1.5-1.4,2.1-2.1,4.3-6.1,8.4-8.1,1-.5,2-1,2.9-1.6,3.4,1.7,8.8,2.9,15.5-.3,10,5,16,1.6,18.1-.2,2.6-2.2,4-5.4,4-8.6s-.2-2.3-.5-3.3c-1.4-4.3-5.4-7.1-10.9-7.7-.3-1.2-.8-2.2-1.4-3.3.6-.8,1.2-1.6,1.6-2,.5-.6,2.1-3.3-2.3-1-.2.1-.6.3-1.2.7-.6-.6-1.3-1.2-2.1-1.6-4.1-2.5-9.6-2.8-15.4-1.3-.8-3-2.3-5.6-4.7-7.1-2.5-1.5-5.7-2-9.4-1.4.2-.5.4-1,.6-1.4,1.7-3.5.8-4.3-1-2.8-2,1.7-3.2,3-4.2,4-3.5-5.7-8.2-9.5-13.7-10.9-4.8-1.3-9.9-.6-14.6,1.7-.3-2.3-.6-4.3-.9-5.4-.9-2.8-1.9-.6-2.1.3-.2,1.2-.5,2.8-.8,4.7-4.6-2.5-9.8-3.2-14.6-1.7-5.3,1.6-9.3,5.6-11.7,11-1.9-.7-3.7-1.1-5.3-1.4-1-1.3-2.4-2.9-4.4-4.6-1.4-1.2-2.5-.6-1.7,1.8.3.9.6,1.7.8,2.5-3.8.2-6.5,1.4-8.4,2.9-3.7,2.8-5.2,6.9-5.5,9.5-.2,0-.5.1-.5.1-3.1.7-7.2,1.9-9.8,6-.5-.3-.8-.5-.9-.6-7.8-5.2-4.2,1.5-1.2,4.4-10.3,1.5-13.2,6.4-14,9.4-.2.7-.3,1.5-.3,2.3,0,3.3,1.7,6.7,4.7,8.7,3.4,2.3,7.6,2.2,11.4-.2,4.9,1.6,11.7,1.3,16.6-2.3,2.8,3.1,5.1,5.2,6.4,6.5,3.1,3.1,7.6,5.4,10,6.3-2.3-.9-6.1-1.8-9.9-1.3-8.2,1.1-13.7-.3-17.3-.7-5.8-.6-11.8.4-14.8.4s-7.6,1.5-9.8,1.8c-2.3.4-2.2,1.9,1.1,2.8,3.2.9,9.3,1.4,10.9,2.1,5.3,2.3,14.1,4.2,20.3,3.7,4.4-.3,8.8,1.8,10,2.1,2.2.7,7.6,2.1,9.8,2.1,0-.1,0,3.1.2,4.7-.8.3-1.7.6-2.4.9-2.5-1.5-13.3-5.9-26.5-.4-2.8-1-8.7-4.2-16.8-1.6-10,3.3-8.4,12.4-5.1,16.6,4.4,5.7,12.7,4.5,15.1,1.7,5.4,3.6,10.8,2.4,14.8-.1,2.6,1.5,15.4,4.1,25.2.1,1.3,1,6.7,3.8,13.6.3,4,2.4,10.5,2.5,13.9-.4,1.2,1,4.9,2.5,12.7,2.4,9.4-.1,11.5-1.5,12.9-2.7,2,.9,7.3,3.7,13.8.9,3.5,2.2,10.5,2.1,14.3-.4,6.9,3.1,19.5,1.7,22.7-.5,5.7-3.9,2.9-11.9-3.3-15.7-12.2-6.2-23.6-1.4-26.6.2-3.6-2.4-11.1-4-19-2.5.1-.9,0-2,0-3.2s0-.2,0-.4c1.6-.5,3.8-2.1,8.2-2.4,6.1-.4,20.5-.2,27.7-3.9,4.1-2.1,18.4-4.9,20.3-6,2-1.1,1.5-2,.4-2.7ZM189.9,56.6c-5.2,6.1-7.8,8.2-8.7,8.2-1-2-3.2-4.4-4.7-5.7,1.9-2.1,10-5.9,13.7-8.7.6-.4,2.2-1.4,2.9-1.8,1,1.2,2.1,2.3,3.4,3.2-3.2,1.8-5,2.8-6.7,4.8ZM115.1,43.3c4.4.7,9.5-.3,13.1-3.7,4.5,7.2,4.7,13.8,9,18.3-5.5-5.4-10.4-5.2-18.3-9.5-1.4-.7-3.4-2.1-4-2.4,0,0,0,0,0,0,0-.7.1-1.4.1-2.1s0-.5,0-.7ZM148.8,51.4v.2c.1,0-2.3-3.6-2.6-4.1-.8-1.3-1.9-2.5-3.1-4-1.9-2.3-3.5-4.1-4.8-5.5,3.2-.8,6.8-2.6,10.6-6.2.4.3.8.5,1.2.8-.2,1.2-.4,2.4-.6,3.2-.9,4.9-1,8.6-1,10.3,0,1.5,0,3.9.2,5.4ZM141.9,46.9c1.9,2.5,3.6,5.5,4,6.1-1.6.6-4.5,2-6.1,3.1-3.1-3.2-5.5-12.8-7-15.3-.6-1-1-1.7-1.3-2.2,1.1.4,2.8.3,3.8.3.3.4,3,3,6.7,8ZM156.2,54c15.1,0,27,11.9,27,27s0,2.5-.3,4c-1.6.5-3.2,1-4.8,1.8-7.8-4.5-18.5-4.3-25.9,0-4.6-3.6-14.9-3.9-22.6-2.1-.2-1.5-.4-2.9-.4-3.6,0-14.9,12.1-27,27-27ZM152.3,43.7c.3-5,1.3-8.4,1.4-9.1,1.1.5,2.4,1,3.6,1.3,1,2.1,2.7,10.4,1.9,15.5-2.3-.2-4.9-.2-6.5,0-.5-.9-.6-5-.4-7.7ZM176.2,44.3c-1.5,3.3-.7,7.5-4.6,11.4-.5-.4-4.5-2.3-6-2.9.6-5.2,5.5-11.7,8.6-14.4,1,1.1,2.4,2.1,3.6,2.8-.4.6-1,1.8-1.7,3.2ZM180.3,43.2c.1-.2.3-.5.4-.8,2.9,1,6.1,1.2,9.2.9.3,1,.8,2.1,1.4,3.2,0,0,0,0,0,0-1.5.7-6.2,3.9-13.1,7.8-1.8,1-2.9,1.9-3.5,2.6.8-1,1.7-2.4,2.3-3.8,1.2-3.1.9-5.6,3.3-9.8ZM163.7,47.2c-.7,1.9-1,2.9-1.3,3.9.6-4-.5-10-1.7-15.1,3.5,0,7.1-.9,10.6-2.9.3.8.6,1.5,1,2.2-2,1.8-6.8,7.1-8.6,11.8ZM108.4,51.3c-4,3.2-10.7,3.6-14.8,2-.5-.2-1.1-.1-1.6.2-2.7,2-5.7,2.2-8.2.5-2.5-1.7-3.7-4.7-3-7.4,1-3.8,5.5-6.4,12.5-7.1.7,0,1.3-.6,1.5-1.3,1.3-6.4,5.4-7.4,9.5-8.3l1.7-.4c.8-.2,1.3-1,1.2-1.8-.2-1.2.9-5.3,4.3-8,4-3.1,9.9-3.1,17.2-.2.4.2.9.2,1.3,0,.4-.2.7-.5.9-1,1.8-5.3,5.4-9,10.2-10.4,4.9-1.5,10.2-.4,14.7,2.9.6.4,1.3.4,1.9,0,4.5-2.9,9.7-3.8,14.5-2.5,5.3,1.4,9.8,5.4,13,11.5.4.7,1.2,1.1,2,.8,5-1.7,9-1.8,11.7-.1,2.5,1.6,3.4,4.3,3.7,6.3,0,.5.3.9.8,1.2s.9.3,1.4.2c5.3-1.8,10.6-1.5,14.2.7,2.4,1.4,3.8,3.6,4.2,6.2.1.8.8,1.3,1.5,1.4,4.6.3,7.9,2.3,9,5.6,1,3,0,6.3-2.5,8.4-3.5,2.9-9,2.7-15.1-.5-.5-.3-1.1-.3-1.5,0-4.8,2.5-9.3,2.6-13.5.5-4.9-2.5-7.7-7.4-8-10,0-.4-.3-.8-.7-1.1-.4-.3-.8-.4-1.2-.3-3.4.5-14.7,1.5-17.1-9.3-.1-.5-.5-1-1-1.2-.5-.2-1.1.2-1.5.5-7.3,4.9-14.6,4.5-21.5-1-.7-.5-1.6-.6-2.2,0-7.9,8-14.4,7.4-17.6,6.1-.7-.3-1.6,0-2,.6-3.1,4.8-9.6,5.9-14.2,4.4-.5-.2-1.1-.2-1.6.1-.4.4-.7.9-.6,1.5.7,4.5-.5,8-3.4,10.3ZM112.2,52.8c.7-1,1.6-2.7,2-4,.4.3.8.5.9.6.1,0,2.7,1.8,4.3,2.6,6.8,3.2,11.1,4,15.8,7.8-1.7,1.9-3.4,4-4.5,5.9-9.8-2.7-17.5-11.5-18.5-12.8ZM117.3,74.7c-1-.3-6.5-2.4-9.9-2.1-6.8.5-15.5-1.7-19.8-3.3-1.1-.4-10.5-1.2-1.3-1.2s6.7-.8,12.8,0c3.5.5,9.6,1.1,18.9.4,4.5-.4,8,1.1,9.8,2.9-.5,1.4-1,4.6-1.2,5.7-2.4,0-6.8-1.4-9.3-2.3ZM94.2,99.5c-4.1-3-7-8.4-9.8-7.5-1.2.4-1.3,2.5.3,2.6,1.1,0,3.2,3,4.4,4.4-.3,1.6-4.4,3.3-8.7.7-1.9-1.1-5-5.2-2.4-9.9,1.5-2.5,5.6-4,10.6-3.8,9.6.2,12.3,11.1,14.6,13.2,0,1.1-5.2,3-8.9.4ZM108.2,99.3c-3.6-1.6-6.5-10-7.6-11-.4-.4,6.4-2.9,13.4-2.3,11.8,1,11.9,8.4,14.8,12,1.1,1.3-9.6,4.4-20.6,1.3ZM146.9,100.1c-1.1-.7-4.5-5-5.7-6.4-1.2-1.4-3.4-2.8-4.4-1.4-.6.8,0,1.7,1,2.3,1.1.6,3.9,4.3,4.3,5-.2,1.1-5.5,3-8.6-.7-1.6-2-4.7-7.8-6.6-10.3,6.8-2.4,14.8-3.3,20.5-.6,5.5,2.6,6.4,8.5,8.6,11.4.5,1.9-5.8,3.1-9.1.9ZM161.8,99.9c-3.6-1.6-6.5-10-7.6-11-.4-.4,6.4-2.9,13.4-2.3,11.9,1,11.9,8.4,14.8,12,1.1,1.3-9.6,4.4-20.6,1.3ZM221.1,86.2c11.8,1,14.7,8.8,13.5,11.3-1,2.2-8.3,5.1-19.3,2-3.6-1.6-6.5-10-7.6-11-.4-.4,6.4-2.9,13.4-2.3ZM200.9,88c5.5,2.6,6.7,8.4,8.6,11.4.5,1.9-6.1,2.5-9.1.9-1.2-.7-4.5-5-5.7-6.4-1.2-1.4-3.1-2.4-4-1.1-.6.8.1,1.7,1.2,2.3,1.3.7,3.4,3.9,3.8,4.6-.2,1.1-4.9,2.6-8.3-.8-1.8-1.8-4.9-7.9-6.1-10.4,6.7-2.4,14-3.1,19.7-.4ZM232.7,67.4c-3.4.7-7.7,1.7-12.7,3.6-6.8,2.6-20.1,3.4-25.6,3.3-5.2,0-7,2.2-8.8,1.9-.1-2.8-1.8-6.9-1.8-6.9,1.5-.8,6.5-2.5,10.7-2.3,5.7.2,16.2.7,21.6-.2,2.6-.4,12.3-.5,13.8-.5,1.1,0,2.9.2,3.3.3,2.3.4.5.6-.7.8Z"/>
        <g>
          <path class="st0" d="M94,44.3c-2.9,0-5.2,0-7.2,2.3-2.2,2.4-1.6,3.6-2,4.1-.6.6-2.1-.4-2.1-1.6.1-5.5,6.8-7.7,10.8-7.3,1.5.2,1.9,2.5.6,2.5"/>
          <path class="st0" d="M105.7,35.1c-4.2.5-5.5,2.5-6.2,4.9-.3.9-2.7.3-2.3-1.5,1.1-5.2,6.8-6.5,8.8-6,.7.1.5,2.6-.3,2.6"/>
          <path class="st0" d="M124.1,23.7c-7.5-2.9-11.3,2.7-12.5,7.2-.2.6-2.7.4-2.3-1.5.9-4.6,5.4-11.3,15.6-8.7,1.3.3.5,3.5-.8,3"/>
          <path class="st0" d="M152.2,16.4c-6.9-4.7-12.3-.9-15.2,2.5-1.4,1.6-2.8-1.1-2.2-2,2.5-3.9,11-10,18.6-3.3.8.7-.2,3.5-1.1,2.8"/>
          <path class="st0" d="M180.5,22.8c-.6.4-.9-.5-1.3-1.1-6.2-9.7-17.3-7.2-20.3-2.7-.6.9-2.2-1.6-1.4-2.9,2.7-4.4,16.8-8.5,24.1,3.9.8,1.4-.3,2.1-1.1,2.7"/>
          <path class="st0" d="M197.9,28.9c-1.7-4.5-5-4.4-8.9-3.1-1.8.6-1.4-2.4-.8-2.6,3.8-1.3,10.1-1.9,11.8,4.4.5,1.8-1.7,2.6-2.1,1.4"/>
          <path class="st0" d="M218.1,38.6c-3.1-5.7-8.1-5.7-12.3-4.1-.9.4-1.8-2-.3-2.9,4-2.3,12.3-1.9,14.9,5.5.4,1.3-1.2,3.4-2.3,1.5"/>
          <path class="st0" d="M231,47.6c-.2,1-2.6,1-2.5,0,.4-4.7-2-5.1-5-5-1.2,0-1.1-2.5-.2-2.7,4.2-1,9.1,2.1,7.7,7.7"/>
        </g>
        <g>
          <path class="st0" d="M150.2,71.8c0,1.7-1.6,3.1-3.3,3-1.7,0-3.1-1.6-3-3.3v-.3c-.2-.4-1.6-.9-3.7.4-1.1.6-2.2.2-.4-1.4,1.9-1.7,3.8-2.7,5.4-2.9h0c2.7-.2,6.3.4,8,1,.7.3,0,3.7-.2,3.6-.6-.1-1.8-.6-2.8-.4v.2"/>
          <path class="st0" d="M159.2,81.2c-.6,1.6-6.2,2.1-7.3,0-.4-.8-1-3-.2-2.5,1.3.7,5.8.2,6.7,0,.8-.2.3-1.3.7-1.1.6.2.6,2.1,0,3.6"/>
          <path class="st0" d="M172.6,72.4c-1.4-1.2-3.3-1.7-4-1.2v.2c.2,1.7-1.1,3.2-2.8,3.4-1.7.2-3.3-1.1-3.4-2.9h0c-1.1-.5-2.9.1-3.2,0-.1,0-.9-3.3,0-3.7,2.7-1.1,11.4-1.6,14,3.3.3.6.1,1.4-.6.8"/>
        </g>
      </g>
      <g>
        <path class="st0" d="M170.3,119.3h64.9v58.8h-64.9v-58.8ZM77.1,119.3h64.9v58.8h-64.9v-58.8ZM142,283.3c-16.7-4.9-32.9-11.5-43.3-21.2-3.7-3.5-6.8-7.2-9.5-11.2h16.6v2.3h7.7v-2.3h18.6v-31.4h-4v-5.7c-4,1-10.6-1.2-13.5-1.2s-4.9,1.4-4.9,1.4c0,0-1.7-1.4-4.9-1.4-2.9,0-9.5,2.2-13.5,1.2v5.7h-4v28.1c-6.3-11.1-9.4-24.3-10-40.6v-2.5c-.1,0,64.8,0,64.8,0v78.8ZM94.5,244.5v-27.1c2.3.4,6.3-1.2,10.3-1.3,2.2,0,2.8,1.2,2.8,1.2v27.3s-2.3-1.6-7.6-.1c-4.1,1.2-5.5,0-5.5,0ZM111.7,244.6v-27.3s.6-1.2,2.8-1.2c4,.1,8,1.7,10.3,1.3v27.1s-1.5,1.1-5.5,0c-5.2-1.5-7.6.1-7.6.1ZM166.9,284.4l-10.8,2.7-10.8-2.8v-83.4h-68.3v-19.1h68.3v-62.4h21.5v62.4h68.3v19.1h-68.3v83.5ZM225.5,248v-28.4h-4v-5.7c-4,1-10.6-1.2-13.5-1.2s-4.9,1.4-4.9,1.4c0,0-1.7-1.4-4.9-1.4-2.9,0-9.5,2.2-13.5,1.2v5.7h-4v31.4h18.6v2.3h7.7v-2.3h16.7c-2.7,4-5.9,7.8-9.8,11.3-11,10-27.2,16.4-43.5,21.1v-78.8h64.9v2.7c-.9,17.8-3.7,30.4-9.7,40.8ZM218.2,217.5v27.1s-1.5,1.1-5.5,0c-5.2-1.5-7.6.1-7.6.1v-27.3s.6-1.2,2.8-1.2c4,.1,8,1.7,10.3,1.3ZM201,217.3v27.3s-2.3-1.6-7.6-.1c-4.1,1.2-5.5,0-5.5,0v-27.1c2.3.4,6.3-1.2,10.3-1.3,2.2,0,2.8,1.2,2.8,1.2ZM73.1,115.4v87.1c0,28.8,7.2,48.7,22.6,62.7,15.3,13.9,38.1,21,60.5,26.2,23-5.4,45.1-12.2,60.5-26.2,15.4-14,22.5-33.9,22.5-62.7v-87.1H73.1Z"/>
        <path class="st0" d="M128.2,134.7v-5.7c-4,1-10.6-1.2-13.5-1.2s-4.9,1.4-4.9,1.4c0,0-1.7-1.4-4.9-1.4-2.9,0-9.5,2.2-13.5,1.2v5.7h-4v31.4h18.6v2.3h7.7v-2.3h18.6v-31.4h-4ZM107.6,159.8s-2.3-1.6-7.6-.1c-4.1,1.2-5.5,0-5.5,0v-27.1c2.3.4,6.3-1.2,10.3-1.3,2.2,0,2.8,1.2,2.8,1.2v27.3ZM124.9,159.7s-1.5,1.1-5.5,0c-5.2-1.5-7.6.1-7.6.1v-27.3s.6-1.2,2.8-1.2c4,.1,8,1.7,10.3,1.3v27.1Z"/>
        <path class="st0" d="M221.6,134.7v-5.7c-4,1-10.6-1.2-13.5-1.2s-4.9,1.4-4.9,1.4c0,0-1.7-1.4-4.9-1.4-2.9,0-9.5,2.2-13.5,1.2v5.7h-4v31.4h18.6v2.3h7.7v-2.3h18.6v-31.4h-4ZM200.5,159.8s-2.3-1.6-7.6-.1c-4.1,1.2-5.5,0-5.5,0v-27.1c2.3.4,6.3-1.2,10.3-1.3,2.2,0,2.8,1.2,2.8,1.2v27.3ZM217.7,159.7s-1.5,1.1-5.5,0c-5.3-1.5-7.6.1-7.6.1v-27.3s.6-1.2,2.8-1.2c4,.1,8,1.7,10.3,1.3v27.1Z"/>
      </g>
    </g>
    <g>
      <polygon class="st1" points="145.4 284.3 156.2 287.1 166.9 284.4 166.9 200.9 235.2 200.9 235.2 181.8 166.9 181.8 166.9 119.3 145.4 119.3 145.4 181.8 77.1 181.8 77.1 200.9 145.4 200.9 145.4 284.3"/>
      <g>
        <path class="st1" d="M114,86c-7-.6-13.8,1.9-13.4,2.3,1.1,1.1,3.9,9.4,7.6,11,11,3.1,21.7,0,20.6-1.3-2.9-3.7-3-11-14.8-12Z"/>
        <path class="st1" d="M167.6,86.6c-7-.6-13.8,1.9-13.4,2.3,1.1,1.1,4,9.4,7.6,11,11,3.1,21.7,0,20.6-1.3-2.9-3.7-2.9-11-14.8-12Z"/>
        <path class="st1" d="M215.3,99.5c11,3.1,18.3.2,19.3-2,1.2-2.5-1.6-10.3-13.5-11.3-7-.6-13.8,1.9-13.4,2.3,1.1,1.1,3.9,9.4,7.6,11Z"/>
      </g>
    </g>
  </g>
</svg>